<?xml version="1.0" encoding="UTF-8" standalone="no"?>
<!DOCTYPE svg PUBLIC "-//W3C//DTD SVG 1.1//EN" "http://www.w3.org/Graphics/SVG/1.1/DTD/svg11.dtd">
<svg xmlns="http://www.w3.org/2000/svg" version="1.1" viewBox="0 0 980 984">
<path fill="#d7d6d9" fill-opacity="0.992" d="M 475.56,0.00 Q 482.69,0.00 489.81,0.00 Q 489.80,0.13 489.79,0.25 L 489.71,0.75 Q 472.97,1.11 456.25,1.97 Q 431.43,3.25 406.93,7.38 Q 380.40,11.85 355.15,21.08 Q 313.20,36.42 281.46,67.75 Q 281.06,67.83 280.96,67.50 Q 298.62,48.86 320.44,36.44 Q 341.06,24.70 363.96,17.00 Q 372.69,14.07 383.19,11.55 Q 424.33,1.68 466.25,0.75 Q 471.51,0.63 475.56,0.00 Z"/>
<path fill="#293029" fill-opacity="0.984" d="M 489.79,0.25 Q 490.00,0.72 490.00,2.00 Q 490.03,153.00 489.96,304.00 Q 489.33,305.09 489.33,303.50 Q 489.50,174.25 489.50,45.00 Q 489.50,13.51 489.71,0.75 L 489.79,0.25 Z"/>
<path fill="#000000" d="M 489.71,0.75 Q 489.50,13.51 489.50,45.00 Q 489.50,174.25 489.33,303.50 Q 489.33,305.09 489.96,304.00 L 490.21,306.75 Q 488.86,306.80 490.00,307.50 Q 490.80,307.99 493.50,307.71 Q 506.95,309.08 520.38,310.68 Q 520.47,310.69 521.61,310.88 Q 524.34,311.35 525.69,309.19 Q 528.75,304.25 531.69,296.44 Q 551.38,244.20 581.56,197.41 Q 587.04,188.92 592.85,180.91 Q 605.12,163.99 617.50,150.00 Q 645.24,118.66 681.83,95.88 Q 683.55,94.81 685.60,94.74 Q 696.05,94.34 706.50,93.85 Q 775.82,90.65 831.14,129.62 Q 838.72,134.95 846.88,141.93 Q 874.01,165.14 895.24,194.02 Q 904.87,207.12 913.93,220.61 Q 920.67,230.67 926.76,241.90 A 1.34,1.34 -29.1 0 1 926.25,243.69 Q 834.13,296.43 741.41,349.14 Q 696.90,374.45 652.03,400.37 A 1.71,1.71 -25.5 0 0 651.29,402.46 Q 656.19,415.12 662.00,426.75 Q 663.68,430.11 668.00,431.04 Q 671.14,431.69 677.06,431.06 Q 682.21,430.52 694.50,428.75 Q 717.17,425.48 742.75,424.46 L 786.50,423.71 Q 802.77,423.71 811.75,424.50 Q 857.46,428.52 900.90,443.17 Q 907.46,445.38 920.56,450.94 Q 931.26,455.48 938.58,463.45 Q 942.36,467.56 950.12,479.76 Q 967.50,507.05 975.75,537.75 Q 978.33,547.33 979.25,559.29 L 979.54,572.25 L 979.54,592.00 Q 979.22,615.85 971.56,640.31 Q 963.14,667.20 952.72,689.39 Q 946.97,701.63 940.96,713.75 Q 935.89,723.84 929.93,733.45 Q 928.96,735.01 927.32,734.19 Q 905.80,723.57 884.29,711.74 Q 815.38,673.86 746.78,635.44 Q 699.30,608.84 651.47,582.64 A 1.18,1.18 -57.8 0 0 649.94,582.99 Q 641.83,594.41 633.97,606.25 Q 631.97,609.27 634.06,612.44 Q 641.36,623.49 648.54,632.43 Q 664.32,652.05 678.30,672.99 Q 698.50,703.25 714.20,736.01 Q 718.90,745.81 722.26,754.30 Q 737.30,792.37 741.96,833.25 Q 742.52,839.51 743.07,845.77 Q 743.29,848.20 742.81,849.70 Q 742.24,851.44 741.06,853.31 Q 739.55,855.71 734.00,866.53 Q 722.13,889.69 704.97,909.23 Q 689.96,926.32 671.94,938.69 Q 644.66,957.41 612.25,967.00 Q 597.89,971.25 590.75,972.79 Q 577.33,975.83 563.68,977.63 Q 536.31,981.24 508.75,982.96 L 491.68,983.29 A 1.65,1.64 -0.5 0 1 490.00,981.65 L 489.94,677.09 A 0.79,0.78 2.0 0 0 489.20,676.31 Q 473.75,675.30 458.44,673.06 Q 455.62,672.65 453.96,674.50 Q 451.50,678.63 449.06,685.81 Q 445.93,695.04 433.96,721.75 Q 417.51,756.38 396.96,788.75 Q 370.75,828.98 334.85,860.86 Q 317.63,876.15 297.51,888.66 Q 296.57,889.24 295.55,889.27 L 266.50,890.29 L 248.00,890.04 Q 192.62,885.51 148.06,853.69 Q 116.58,831.20 92.64,800.09 Q 88.96,795.31 80.71,784.05 Q 65.86,763.78 52.96,742.43 A 0.77,0.77 -31.2 0 1 53.22,741.37 Q 80.90,724.79 108.83,708.85 Q 189.28,662.94 269.69,616.94 Q 279.77,611.18 327.69,583.19 Q 329.55,582.10 328.50,580.46 Q 322.49,565.68 315.17,551.51 A 0.74,0.72 73.3 0 0 314.45,551.11 Q 310.21,551.53 306.00,552.23 Q 279.26,556.67 252.25,558.79 Q 231.40,560.30 210.50,560.29 L 190.25,560.29 Q 169.69,559.61 149.25,557.29 Q 111.10,552.85 75.15,539.46 Q 58.60,533.30 51.44,529.06 Q 44.84,525.16 40.19,519.06 Q 12.75,483.11 2.54,439.00 Q 0.46,425.09 0.54,411.00 Q 0.97,408.51 0.00,406.19 Q 0.00,404.56 0.00,402.94 Q 0.47,403.13 0.50,402.75 Q 0.96,397.38 0.71,392.00 Q 0.89,379.06 2.71,366.25 Q 9.02,333.13 23.37,302.73 Q 26.58,295.93 28.35,292.09 Q 30.81,286.75 33.46,281.50 Q 41.17,265.15 50.72,248.86 Q 51.73,247.14 53.48,248.11 Q 129.98,290.89 207.01,333.98 Q 247.73,356.76 288.66,379.17 Q 308.59,390.09 329.34,400.07 A 1.09,1.07 29.8 0 0 330.71,399.71 L 347.52,375.19 A 2.24,2.21 -46.8 0 0 347.45,372.58 Q 336.70,358.57 325.75,344.76 Q 301.15,313.76 281.56,279.38 Q 258.55,239.01 246.04,194.25 Q 238.86,166.10 236.86,137.13 Q 236.74,135.38 237.30,133.96 Q 237.90,132.44 238.71,131.00 Q 247.71,113.72 249.69,110.19 Q 262.77,86.86 281.46,67.75 Q 313.20,36.42 355.15,21.08 Q 380.40,11.85 406.93,7.38 Q 431.43,3.25 456.25,1.97 Q 472.97,1.11 489.71,0.75 ZM 565.29,544.25 Q 570.43,538.16 573.44,531.69 Q 584.49,507.89 581.78,482.13 Q 580.73,472.13 577.34,462.69 Q 568.13,437.00 545.81,419.19 Q 522.79,400.80 494.00,399.79 L 488.75,399.79 Q 469.08,400.26 451.11,408.17 Q 445.10,410.82 440.81,414.06 Q 428.09,423.69 416.88,436.65 Q 408.51,446.32 403.75,459.25 Q 396.07,480.11 398.22,501.37 Q 399.21,511.16 402.45,520.88 Q 410.75,545.83 430.80,562.70 Q 438.71,569.35 447.39,573.78 Q 464.30,582.40 485.00,584.00 Q 508.41,585.81 527.19,576.69 Q 549.11,566.04 565.29,544.25 Z"/>
<path fill="#e9e9ed" fill-opacity="0.988" d="M 280.96,67.50 Q 281.06,67.83 281.46,67.75 Q 262.77,86.86 249.69,110.19 Q 247.71,113.72 238.71,131.00 Q 238.31,131.08 238.21,130.75 Q 247.54,110.60 258.94,93.69 Q 268.16,80.01 280.96,67.50 Z"/>
<path fill="#e9e9ed" fill-opacity="0.988" d="M 670.00,430.79 Q 669.04,431.13 668.00,431.04 Q 663.68,430.11 662.00,426.75 Q 656.19,415.12 651.29,402.46 A 1.71,1.71 -25.5 0 1 652.03,400.37 Q 696.90,374.45 741.41,349.14 Q 834.13,296.43 926.25,243.69 A 1.34,1.34 -29.1 0 0 926.76,241.90 Q 920.67,230.67 913.93,220.61 Q 904.87,207.12 895.24,194.02 Q 874.01,165.14 846.88,141.93 Q 838.72,134.95 831.14,129.62 Q 775.82,90.65 706.50,93.85 Q 696.05,94.34 685.60,94.74 Q 683.55,94.81 681.83,95.88 Q 645.24,118.66 617.50,150.00 Q 605.12,163.99 592.85,180.91 Q 587.04,188.92 581.56,197.41 Q 551.38,244.20 531.69,296.44 Q 528.75,304.25 525.69,309.19 Q 524.34,311.35 521.61,310.88 Q 520.47,310.69 520.38,310.68 Q 506.95,309.08 493.50,307.71 Q 491.74,307.80 492.25,307.04 Q 506.42,307.86 511.50,308.75 Q 517.34,309.78 521.96,309.95 Q 524.72,310.06 525.88,307.56 Q 530.87,296.89 535.00,286.00 Q 538.12,277.80 544.20,264.26 Q 558.59,232.25 577.32,202.57 Q 593.73,176.57 613.68,153.18 Q 643.08,118.70 682.33,94.54 Q 683.03,94.11 683.85,94.07 Q 698.74,93.22 712.50,92.89 Q 774.30,91.41 824.94,124.41 Q 832.77,129.51 841.12,136.15 Q 866.67,156.50 887.05,182.20 Q 908.68,209.49 926.61,239.35 Q 926.64,239.41 927.46,240.61 Q 929.31,243.35 926.41,244.80 Q 925.31,245.35 925.24,245.39 Q 866.23,278.93 807.36,312.71 Q 798.81,317.62 789.98,322.61 Q 721.13,361.59 652.54,401.07 A 1.06,1.05 -26.7 0 0 652.10,402.39 Q 656.61,413.08 661.19,423.31 Q 663.99,429.58 670.00,430.79 Z"/>
<path fill="#cacbcc" fill-opacity="0.992" d="M 238.21,130.75 Q 238.31,131.08 238.71,131.00 Q 237.90,132.44 237.30,133.96 Q 236.74,135.38 236.86,137.13 Q 238.86,166.10 246.04,194.25 Q 245.96,194.84 245.54,195.25 Q 242.03,182.20 240.50,173.25 Q 236.37,149.11 235.81,136.06 Q 235.72,134.03 238.21,130.75 Z"/>
<path fill="#e9e9ed" fill-opacity="0.988" d="M 246.04,194.25 Q 258.55,239.01 281.56,279.38 Q 301.15,313.76 325.75,344.76 Q 336.70,358.57 347.45,372.58 A 2.24,2.21 -46.8 0 1 347.52,375.19 L 330.71,399.71 A 1.09,1.07 29.8 0 1 329.34,400.07 Q 308.59,390.09 288.66,379.17 Q 247.73,356.76 207.01,333.98 Q 129.98,290.89 53.48,248.11 Q 51.73,247.14 50.72,248.86 Q 41.17,265.15 33.46,281.50 L 33.04,281.50 Q 32.89,280.58 33.69,278.94 Q 36.57,273.02 38.71,269.02 Q 42.12,262.64 43.90,259.20 Q 46.85,253.48 50.32,248.05 Q 51.54,246.14 53.53,247.23 Q 79.31,261.34 104.77,275.66 Q 149.37,300.76 194.04,325.74 Q 213.57,336.66 285.81,376.44 Q 310.73,390.16 329.05,398.79 A 0.63,0.63 -58.2 0 0 329.81,398.61 Q 339.08,387.09 346.74,374.43 A 0.85,0.84 -44.7 0 0 346.75,373.57 Q 345.05,370.71 343.94,369.31 Q 322.75,342.91 312.44,328.81 Q 284.43,290.55 264.47,247.54 Q 252.72,222.22 245.54,195.25 Q 245.96,194.84 246.04,194.25 Z"/>
<path fill="#e3e4e5" fill-opacity="0.988" d="M 33.04,281.50 L 33.46,281.50 Q 30.81,286.75 28.35,292.09 Q 26.58,295.93 23.37,302.73 Q 9.02,333.13 2.71,366.25 Q 2.12,365.96 2.21,365.25 Q 5.65,344.67 14.44,322.19 Q 23.56,298.84 33.04,281.50 Z"/>
<path fill="#98999c" fill-opacity="0.996" d="M 490.21,306.75 Q 491.16,307.29 492.25,307.04 Q 491.74,307.80 493.50,307.71 Q 490.80,307.99 490.00,307.50 Q 488.86,306.80 490.21,306.75 Z"/>
<path fill="#cacbcc" fill-opacity="0.992" d="M 2.21,365.25 Q 2.12,365.96 2.71,366.25 Q 0.89,379.06 0.71,392.00 Q 0.34,392.04 0.00,391.94 Q 0.00,386.06 0.00,380.19 Q 0.93,372.69 2.21,365.25 Z"/>
<path fill="#4c564f" fill-opacity="0.980" d="M 0.00,391.94 Q 0.34,392.04 0.71,392.00 Q 0.96,397.38 0.50,402.75 Q 0.47,403.13 0.00,402.94 Q 0.00,397.44 0.00,391.94 Z"/>
<path fill="#e3e4e5" fill-opacity="0.988" d="M 488.75,399.79 Q 489.43,400.02 489.00,400.46 Q 472.39,401.14 456.75,406.64 Q 447.04,410.06 438.69,416.94 Q 428.93,424.98 420.79,433.95 Q 413.29,442.22 409.01,450.04 Q 401.61,463.56 399.58,479.03 Q 398.97,483.66 398.91,491.00 Q 398.84,500.02 399.25,503.00 Q 403.19,531.49 421.48,552.38 Q 428.14,559.98 436.23,565.83 Q 455.98,580.11 481.00,582.80 Q 494.60,584.26 507.83,581.86 Q 517.59,580.09 526.75,575.62 Q 545.08,566.67 558.56,550.81 Q 560.26,548.82 565.00,543.71 Q 565.34,543.88 565.29,544.25 Q 549.11,566.04 527.19,576.69 Q 508.41,585.81 485.00,584.00 Q 464.30,582.40 447.39,573.78 Q 438.71,569.35 430.80,562.70 Q 410.75,545.83 402.45,520.88 Q 399.21,511.16 398.22,501.37 Q 396.07,480.11 403.75,459.25 Q 408.51,446.32 416.88,436.65 Q 428.09,423.69 440.81,414.06 Q 445.10,410.82 451.11,408.17 Q 469.08,400.26 488.75,399.79 Z"/>
<path fill="#4c564f" fill-opacity="0.980" d="M 488.75,399.79 L 494.00,399.79 L 494.00,400.46 L 489.00,400.46 Q 489.43,400.02 488.75,399.79 Z"/>
<path fill="#d7d6d9" fill-opacity="0.992" d="M 494.00,399.79 Q 522.79,400.80 545.81,419.19 Q 568.13,437.00 577.34,462.69 Q 580.73,472.13 581.78,482.13 Q 584.49,507.89 573.44,531.69 Q 570.43,538.16 565.29,544.25 Q 565.34,543.88 565.00,543.71 Q 566.12,541.73 567.50,539.93 Q 569.28,537.61 570.04,536.21 Q 579.61,518.67 581.20,498.99 Q 582.02,488.89 580.51,479.05 Q 577.38,458.65 565.36,441.37 Q 552.80,423.31 534.25,412.25 Q 515.83,401.27 494.00,400.46 L 494.00,399.79 Z"/>
<path fill="#4c564f" fill-opacity="0.980" d="M 0.00,406.19 Q 0.97,408.51 0.54,411.00 Q 0.40,410.29 0.00,409.69 Q 0.00,407.94 0.00,406.19 Z"/>
<path fill="#cacbcc" fill-opacity="0.992" d="M 0.00,409.69 Q 0.40,410.29 0.54,411.00 Q 0.46,425.09 2.54,439.00 Q 2.39,439.35 2.04,439.50 Q 0.98,433.85 0.00,428.19 Q 0.00,418.94 0.00,409.69 Z"/>
<path fill="#e3e4e5" fill-opacity="0.988" d="M 979.79,558.50 Q 979.91,559.31 979.25,559.29 Q 978.33,547.33 975.75,537.75 Q 967.50,507.05 950.12,479.76 Q 942.36,467.56 938.58,463.45 Q 931.26,455.48 920.56,450.94 Q 907.46,445.38 900.90,443.17 Q 857.46,428.52 811.75,424.50 Q 802.77,423.71 786.50,423.71 Q 785.85,423.58 785.75,423.04 Q 789.25,422.91 792.74,422.99 Q 845.96,424.24 897.06,440.94 Q 905.43,443.67 912.99,446.82 Q 924.45,451.58 928.38,453.92 Q 937.47,459.34 943.81,468.69 Q 955.56,486.00 963.54,502.38 Q 974.56,525.02 979.00,549.25 Q 979.76,553.41 979.79,558.50 Z"/>
<path fill="#98999c" fill-opacity="0.996" d="M 785.75,423.04 Q 785.85,423.58 786.50,423.71 L 742.75,424.46 Q 743.33,423.47 742.00,423.71 Q 763.86,422.52 785.75,423.04 Z"/>
<path fill="#cacbcc" fill-opacity="0.992" d="M 742.00,423.71 Q 743.33,423.47 742.75,424.46 Q 717.17,425.48 694.50,428.75 Q 682.21,430.52 677.06,431.06 Q 671.14,431.69 668.00,431.04 Q 669.04,431.13 670.00,430.79 Q 679.84,430.07 692.00,428.25 Q 716.07,424.65 742.00,423.71 Z"/>
<path fill="#e3e4e5" fill-opacity="0.988" d="M 2.54,439.00 Q 12.75,483.11 40.19,519.06 Q 44.84,525.16 51.44,529.06 Q 58.60,533.30 75.15,539.46 Q 111.10,552.85 149.25,557.29 L 148.50,557.79 Q 112.71,553.95 78.79,542.02 Q 61.27,535.85 50.06,529.19 Q 44.10,525.64 39.25,519.49 Q 37.36,517.09 31.11,507.64 Q 24.35,497.43 18.19,485.31 Q 6.78,462.91 2.04,439.50 Q 2.39,439.35 2.54,439.00 Z"/>
<path fill="#cacbcc" fill-opacity="0.992" d="M 328.50,580.46 L 327.79,580.50 L 314.78,552.22 A 0.71,0.71 72.6 0 0 314.02,551.82 Q 283.84,557.08 253.25,559.46 Q 252.98,558.86 252.25,558.79 Q 279.26,556.67 306.00,552.23 Q 310.21,551.53 314.45,551.11 A 0.74,0.72 73.3 0 1 315.17,551.51 Q 322.49,565.68 328.50,580.46 Z"/>
<path fill="#cacbcc" fill-opacity="0.992" d="M 149.25,557.29 Q 169.69,559.61 190.25,560.29 L 181.50,560.79 Q 164.93,560.08 148.50,557.79 L 149.25,557.29 Z"/>
<path fill="#98999c" fill-opacity="0.996" d="M 979.79,558.50 Q 979.90,558.53 980.00,558.56 Q 980.00,566.06 980.00,573.56 Q 979.73,572.91 979.54,572.25 L 979.25,559.29 Q 979.91,559.31 979.79,558.50 Z"/>
<path fill="#cacbcc" fill-opacity="0.992" d="M 252.25,558.79 Q 252.98,558.86 253.25,559.46 L 234.75,560.79 L 210.50,560.29 Q 231.40,560.30 252.25,558.79 Z"/>
<path fill="#98999c" fill-opacity="0.996" d="M 210.50,560.29 L 234.75,560.79 Q 208.12,561.31 181.50,560.79 L 190.25,560.29 L 210.50,560.29 Z"/>
<path fill="#4c564f" fill-opacity="0.980" d="M 979.54,572.25 Q 979.73,572.91 980.00,573.56 Q 980.00,582.56 980.00,591.56 Q 979.72,591.70 979.54,592.00 L 979.54,572.25 Z"/>
<path fill="#e9e9ed" fill-opacity="0.988" d="M 327.79,580.50 L 328.50,580.46 Q 329.55,582.10 327.69,583.19 Q 279.77,611.18 269.69,616.94 Q 189.28,662.94 108.83,708.85 Q 80.90,724.79 53.22,741.37 A 0.77,0.77 -32.0 0 0 52.96,742.43 Q 65.86,763.78 80.71,784.05 Q 88.96,795.31 92.64,800.09 Q 116.58,831.20 148.06,853.69 Q 192.62,885.51 248.00,890.04 Q 247.01,890.86 245.50,890.54 Q 207.03,887.23 175.56,871.19 Q 148.34,857.31 125.71,836.79 Q 111.94,824.30 99.83,810.25 Q 94.29,803.81 87.41,794.58 Q 68.90,769.76 52.49,743.88 Q 51.03,741.57 53.37,740.18 Q 93.87,716.04 134.65,692.82 Q 179.39,667.33 224.16,641.89 Q 274.21,613.45 323.93,584.41 Q 324.71,583.96 327.44,581.94 Q 328.25,581.33 327.79,580.50 Z"/>
<path fill="#e9e9ed" fill-opacity="0.988" d="M 940.96,713.75 Q 941.11,714.10 941.46,714.00 Q 937.90,722.10 933.29,729.64 Q 933.23,729.73 932.02,732.08 Q 931.00,734.07 929.24,734.92 A 2.49,2.49 -90.0 0 1 927.06,734.92 Q 907.05,725.19 889.00,715.31 Q 818.56,676.77 748.53,637.50 Q 700.48,610.56 652.41,584.18 Q 650.77,583.29 649.76,584.79 L 634.40,607.52 A 2.88,2.74 50.8 0 0 634.19,610.23 Q 636.24,614.91 639.57,619.19 Q 650.90,633.74 662.06,648.42 Q 666.65,654.46 671.22,661.19 Q 675.63,667.70 680.06,674.19 Q 687.87,685.62 701.21,709.02 Q 711.48,727.04 718.69,743.31 Q 732.87,775.33 739.58,810.98 Q 741.61,821.79 742.46,832.75 Q 742.11,832.90 741.96,833.25 Q 737.30,792.37 722.26,754.30 Q 718.90,745.81 714.20,736.01 Q 698.50,703.25 678.30,672.99 Q 664.32,652.05 648.54,632.43 Q 641.36,623.49 634.06,612.44 Q 631.97,609.27 633.97,606.25 Q 641.83,594.41 649.94,582.99 A 1.18,1.18 -57.8 0 1 651.47,582.64 Q 699.30,608.84 746.78,635.44 Q 815.38,673.86 884.29,711.74 Q 905.80,723.57 927.32,734.19 Q 928.96,735.01 929.93,733.45 Q 935.89,723.84 940.96,713.75 Z"/>
<path fill="#d7d6d9" fill-opacity="0.992" d="M 980.00,591.56 Q 980.00,598.19 980.00,604.81 Q 978.36,619.08 973.75,636.00 Q 968.62,654.81 958.81,677.31 Q 948.97,699.90 941.46,714.00 Q 941.11,714.10 940.96,713.75 Q 946.97,701.63 952.72,689.39 Q 963.14,667.20 971.56,640.31 Q 979.22,615.85 979.54,592.00 Q 979.72,591.70 980.00,591.56 Z"/>
<path fill="#e9e9ed" fill-opacity="0.988" d="M 508.75,982.96 Q 509.81,982.69 510.25,983.46 Q 505.85,983.75 501.44,984.00 Q 495.44,984.00 489.44,984.00 Q 489.30,983.34 489.30,982.69 Q 488.95,830.47 489.00,677.97 A 0.90,0.90 2.0 0 0 488.16,677.07 Q 473.20,675.96 459.26,673.94 Q 456.68,673.56 454.50,674.79 Q 454.08,674.82 453.96,674.50 Q 455.62,672.65 458.44,673.06 Q 473.75,675.30 489.20,676.31 A 0.79,0.78 2.0 0 1 489.94,677.09 L 490.00,981.65 A 1.65,1.64 -0.5 0 0 491.68,983.29 L 508.75,982.96 Z"/>
<path fill="#d7d6d9" fill-opacity="0.992" d="M 453.96,674.50 Q 454.08,674.82 454.50,674.79 Q 451.13,682.37 450.00,685.50 Q 443.23,704.18 434.46,722.00 Q 434.06,722.08 433.96,721.75 Q 445.93,695.04 449.06,685.81 Q 451.50,678.63 453.96,674.50 Z"/>
<path fill="#e9e9ed" fill-opacity="0.988" d="M 433.96,721.75 Q 434.06,722.08 434.46,722.00 Q 430.28,732.02 425.19,741.59 Q 424.87,742.20 415.67,759.17 Q 407.33,774.55 397.50,789.04 Q 397.08,789.07 396.96,788.75 Q 417.51,756.38 433.96,721.75 Z"/>
<path fill="#e3e4e5" fill-opacity="0.988" d="M 396.96,788.75 Q 397.08,789.07 397.50,789.04 Q 386.72,806.54 375.56,819.81 Q 353.02,846.64 328.94,867.19 Q 315.81,878.39 298.51,888.84 Q 296.71,889.93 294.57,890.03 Q 287.41,890.35 280.25,890.79 L 265.57,890.69 Q 265.12,890.69 265.55,890.57 L 266.50,890.29 L 295.55,889.27 Q 296.57,889.24 297.51,888.66 Q 317.63,876.15 334.85,860.86 Q 370.75,828.98 396.96,788.75 Z"/>
<path fill="#e3e4e5" fill-opacity="0.988" d="M 742.46,832.75 L 744.05,848.35 A 3.40,2.55 -41.4 0 1 743.70,850.03 Q 735.18,867.05 726.04,882.10 Q 717.69,895.86 710.94,903.69 Q 707.20,908.03 703.44,912.36 Q 699.27,917.17 695.54,920.65 Q 674.39,940.39 650.31,952.81 Q 623.42,966.69 591.25,973.46 Q 591.20,972.99 590.75,972.79 Q 597.89,971.25 612.25,967.00 Q 644.66,957.41 671.94,938.69 Q 689.96,926.32 704.97,909.23 Q 722.13,889.69 734.00,866.53 Q 739.55,855.71 741.06,853.31 Q 742.24,851.44 742.81,849.70 Q 743.29,848.20 743.07,845.77 Q 742.52,839.51 741.96,833.25 Q 742.11,832.90 742.46,832.75 Z"/>
<path fill="#98999c" fill-opacity="0.996" d="M 248.00,890.04 L 266.50,890.29 L 265.55,890.57 Q 265.12,890.69 265.57,890.69 L 280.25,890.79 Q 262.86,891.71 245.50,890.54 Q 247.01,890.86 248.00,890.04 Z"/>
<path fill="#cacbcc" fill-opacity="0.992" d="M 590.75,972.79 Q 591.20,972.99 591.25,973.46 Q 589.94,974.02 588.51,974.30 Q 549.72,981.77 510.25,983.46 Q 509.81,982.69 508.75,982.96 Q 536.31,981.24 563.68,977.63 Q 577.33,975.83 590.75,972.79 Z"/>
</svg>
