<?xml version="1.0" encoding="UTF-8" standalone="no"?>
<!DOCTYPE svg PUBLIC "-//W3C//DTD SVG 1.1//EN" "http://www.w3.org/Graphics/SVG/1.1/DTD/svg11.dtd">
<svg xmlns="http://www.w3.org/2000/svg" version="1.1" viewBox="0 0 981 983">
<path fill="#000000" d="M 578.25,0.79 Q 578.17,1.22 578.50,1.23 Q 619.59,2.22 657.92,16.87 Q 687.18,28.06 711.29,47.75 Q 716.91,52.35 721.99,57.51 Q 727.09,62.67 731.79,68.21 Q 751.49,91.43 758.97,121.01 Q 765.09,145.21 760.53,169.75 Q 757.12,188.06 745.43,202.43 Q 733.09,217.60 713.52,219.94 Q 706.92,220.72 700.33,221.60 Q 692.74,222.61 687.27,223.92 Q 655.53,231.51 628.79,250.54 Q 603.05,268.85 584.16,294.18 Q 570.78,312.13 561.69,330.69 Q 553.72,346.94 546.37,366.18 Q 544.05,372.24 541.40,378.73 Q 538.91,384.82 536.44,391.31 A 1.19,1.19 -65.7 0 0 536.99,392.78 Q 558.86,404.42 574.54,423.33 Q 580.15,430.10 585.22,438.70 Q 589.93,446.71 593.89,455.31 A 0.78,0.78 61.1 0 0 595.02,455.64 Q 619.98,439.55 647.16,427.37 Q 684.70,410.56 724.42,400.16 Q 734.34,397.57 741.67,396.27 Q 751.47,394.54 759.25,394.25 Q 784.63,393.31 818.42,394.38 Q 828.21,394.69 835.84,396.19 Q 874.74,403.83 907.13,426.39 Q 915.57,432.27 922.79,438.79 Q 945.71,459.49 959.91,487.29 Q 972.38,511.70 976.75,534.25 Q 979.92,550.62 979.54,573.25 L 979.54,588.25 Q 978.76,620.92 967.96,651.75 Q 957.41,682.31 939.75,706.25 Q 922.36,729.83 898.94,745.19 Q 884.21,754.84 866.40,760.71 Q 861.09,762.46 856.84,763.11 Q 852.25,763.81 847.00,764.00 Q 830.33,764.59 816.04,763.93 Q 811.76,763.74 809.02,763.11 Q 805.70,762.35 802.25,761.00 Q 795.69,758.44 789.83,755.27 Q 782.50,751.30 778.28,747.99 Q 767.13,739.25 763.04,725.00 Q 760.83,715.70 759.19,701.06 Q 756.80,679.82 747.98,659.32 Q 744.13,650.37 738.72,641.60 Q 729.37,626.43 717.27,613.23 Q 704.50,599.31 690.00,587.21 Q 665.91,567.63 636.99,556.28 Q 614.00,547.25 591.28,538.36 A 0.97,0.97 25.9 0 0 590.09,538.77 Q 585.31,546.79 579.84,554.30 Q 573.75,562.65 567.85,568.49 Q 556.25,579.96 541.74,587.69 Q 534.70,591.43 534.45,591.57 Q 530.92,593.47 526.99,595.37 A 0.67,0.67 -28.3 0 0 526.70,596.33 Q 534.26,608.90 541.19,621.01 Q 574.53,679.30 587.46,745.26 Q 589.94,757.90 590.96,770.75 Q 592.98,803.12 588.50,832.25 Q 586.92,842.53 582.71,858.00 Q 570.24,900.63 541.19,930.69 Q 521.10,951.47 495.05,964.04 Q 473.71,974.35 450.50,979.21 Q 430.24,982.65 411.75,982.50 Q 410.95,982.49 410.94,983.00 Q 405.56,983.00 400.19,983.00 Q 400.64,982.24 399.50,982.30 Q 397.13,982.41 394.75,982.54 Q 378.86,982.30 362.19,979.06 Q 318.17,970.52 281.57,945.62 Q 262.36,932.55 247.74,914.52 Q 230.12,892.80 222.04,866.00 Q 217.42,846.93 219.25,823.75 Q 220.90,802.83 231.29,787.25 Q 239.33,775.57 250.31,769.56 Q 259.18,764.71 271.00,764.25 Q 276.10,764.05 296.98,759.18 Q 321.39,753.49 342.53,740.09 Q 358.12,730.21 371.52,717.52 Q 405.12,685.70 423.81,643.31 Q 432.30,624.08 444.26,592.77 A 0.60,0.59 26.3 0 0 444.01,592.05 Q 429.76,583.28 427.06,581.19 Q 399.88,560.11 386.85,528.70 A 0.63,0.63 -27.9 0 0 385.93,528.42 Q 361.13,544.31 335.00,556.21 Q 295.82,574.01 255.25,584.00 Q 246.12,586.25 233.50,588.46 Q 205.50,592.36 177.25,591.29 Q 173.04,590.82 171.50,590.75 Q 122.06,588.57 81.56,563.19 Q 28.21,529.75 9.00,468.46 Q 2.33,446.16 1.00,423.00 Q 0.46,413.60 0.43,411.52 Q 0.36,406.73 0.75,400.00 Q 1.88,380.75 2.71,374.50 Q 8.44,335.37 27.03,300.55 Q 38.35,279.34 55.69,260.94 Q 81.13,233.93 116.00,223.00 Q 122.79,220.87 131.50,220.21 L 148.00,219.71 Q 152.27,219.64 156.52,219.94 Q 156.69,219.95 163.50,220.31 Q 173.53,220.83 183.56,225.44 Q 195.90,231.10 204.57,238.44 Q 213.29,245.82 216.73,256.72 Q 219.78,266.39 220.78,276.50 Q 221.54,284.17 222.96,291.75 Q 227.41,318.74 241.71,342.00 Q 254.37,362.32 271.20,379.16 Q 279.28,387.24 285.63,393.00 Q 301.52,407.39 320.68,417.03 Q 325.05,419.23 338.83,425.43 Q 351.11,430.95 363.65,435.91 Q 376.44,440.97 389.66,446.16 A 1.33,1.33 21.2 0 0 391.39,445.40 Q 394.90,436.24 401.45,428.22 Q 420.33,405.09 447.35,392.39 Q 450.29,391.01 453.66,388.95 A 0.59,0.59 -29.9 0 0 453.87,388.18 Q 451.24,383.12 448.17,378.14 Q 423.23,337.76 407.50,292.96 Q 396.45,260.59 392.00,232.00 Q 384.20,181.93 396.71,130.50 Q 405.76,97.61 425.50,70.27 Q 431.41,62.09 438.28,54.90 Q 474.93,16.60 528.00,5.75 Q 546.44,1.99 565.25,1.29 Q 567.11,1.73 568.75,0.79 L 578.25,0.79 ZM 465.84,517.91 Q 472.22,524.21 481.02,526.16 Q 487.86,527.68 492.75,527.50 Q 509.92,526.86 519.34,515.04 Q 525.60,507.19 527.19,496.89 Q 528.86,486.07 524.40,475.29 Q 519.74,464.02 508.31,458.69 Q 491.99,451.08 477.26,457.17 Q 467.70,461.12 461.80,469.41 Q 454.40,479.80 455.10,493.80 Q 455.81,508.03 465.84,517.91 Z"/>
<path fill="#c1c7bf" fill-opacity="0.988" d="M 568.75,0.79 Q 567.11,1.73 565.25,1.29 L 561.25,0.96 L 568.75,0.79 Z"/>
<path fill="#e2e2e5" fill-opacity="0.992" d="M 578.25,0.79 Q 588.53,0.64 598.76,1.70 Q 643.62,6.31 682.88,27.50 Q 692.21,32.54 699.90,37.95 Q 716.96,49.93 730.77,65.72 Q 738.75,74.85 745.06,85.19 Q 765.18,118.17 763.13,157.01 Q 761.87,181.00 748.44,200.19 Q 738.85,213.88 722.50,219.00 Q 718.32,220.31 707.25,221.54 Q 697.19,222.66 691.99,223.79 Q 650.55,232.75 618.15,259.92 Q 610.27,266.52 607.17,269.38 Q 603.44,272.83 600.11,276.68 Q 594.50,283.15 594.35,283.32 Q 583.39,295.63 574.60,309.63 Q 561.79,330.03 552.85,352.40 Q 545.15,371.67 537.33,391.20 A 0.59,0.59 -64.7 0 0 537.59,391.93 Q 573.00,411.43 590.69,447.04 Q 591.41,448.48 592.34,449.98 Q 593.40,451.66 594.04,452.91 Q 595.03,454.85 596.85,453.65 Q 616.80,440.55 637.57,430.79 Q 644.90,427.35 655.83,422.65 Q 695.21,405.71 734.50,396.75 Q 750.12,393.19 769.25,393.03 Q 793.25,392.84 817.25,393.22 Q 817.73,393.23 820.74,393.54 Q 822.10,393.68 824.25,393.75 Q 831.46,393.97 841.57,396.42 Q 854.70,399.60 867.35,404.33 Q 915.57,422.37 945.31,461.94 Q 971.61,496.93 979.00,542.50 Q 980.09,549.22 980.21,568.75 L 979.54,573.25 Q 979.92,550.62 976.75,534.25 Q 972.38,511.70 959.91,487.29 Q 945.71,459.49 922.79,438.79 Q 915.57,432.27 907.13,426.39 Q 874.74,403.83 835.84,396.19 Q 828.21,394.69 818.42,394.38 Q 784.63,393.31 759.25,394.25 Q 751.47,394.54 741.67,396.27 Q 734.34,397.57 724.42,400.16 Q 684.70,410.56 647.16,427.37 Q 619.98,439.55 595.02,455.64 A 0.78,0.78 61.1 0 1 593.89,455.31 Q 589.93,446.71 585.22,438.70 Q 580.15,430.10 574.54,423.33 Q 558.86,404.42 536.99,392.78 A 1.19,1.19 -65.7 0 1 536.44,391.31 Q 538.91,384.82 541.40,378.73 Q 544.05,372.24 546.37,366.18 Q 553.72,346.94 561.69,330.69 Q 570.78,312.13 584.16,294.18 Q 603.05,268.85 628.79,250.54 Q 655.53,231.51 687.27,223.92 Q 692.74,222.61 700.33,221.60 Q 706.92,220.72 713.52,219.94 Q 733.09,217.60 745.43,202.43 Q 757.12,188.06 760.53,169.75 Q 765.09,145.21 758.97,121.01 Q 751.49,91.43 731.79,68.21 Q 727.09,62.67 721.99,57.51 Q 716.91,52.35 711.29,47.75 Q 687.18,28.06 657.92,16.87 Q 619.59,2.22 578.50,1.23 Q 578.17,1.22 578.25,0.79 Z"/>
<path fill="#e2e2e5" fill-opacity="0.992" d="M 561.25,0.96 L 565.25,1.29 Q 546.44,1.99 528.00,5.75 Q 474.93,16.60 438.28,54.90 Q 431.41,62.09 425.50,70.27 Q 405.76,97.61 396.71,130.50 Q 396.17,130.59 396.21,130.00 Q 403.14,104.15 417.12,81.35 Q 445.51,35.07 495.44,14.69 Q 526.68,1.93 561.25,0.96 Z"/>
<path fill="#c1c7bf" fill-opacity="0.988" d="M 396.21,130.00 Q 396.17,130.59 396.71,130.50 Q 384.20,181.93 392.00,232.00 Q 396.45,260.59 407.50,292.96 Q 407.08,292.93 406.96,293.25 Q 394.29,257.64 389.75,222.50 Q 388.72,214.57 388.67,204.17 Q 388.67,204.10 388.22,194.98 Q 388.07,191.89 388.35,188.81 Q 388.74,184.70 388.76,182.68 Q 389.07,155.87 396.21,130.00 Z"/>
<path fill="#e2e2e5" fill-opacity="0.992" d="M 223.46,290.75 Q 223.04,291.16 222.96,291.75 Q 221.54,284.17 220.78,276.50 Q 219.78,266.39 216.73,256.72 Q 213.29,245.82 204.57,238.44 Q 195.90,231.10 183.56,225.44 Q 173.53,220.83 163.50,220.31 Q 156.69,219.95 156.52,219.94 Q 152.27,219.64 148.00,219.71 L 141.50,219.29 Q 150.62,218.38 159.70,219.29 Q 159.85,219.30 167.32,219.86 Q 173.50,220.31 179.34,222.63 Q 191.77,227.56 202.44,235.61 Q 216.46,246.19 219.56,263.19 Q 221.65,274.65 223.46,290.75 Z"/>
<path fill="#c1c7bf" fill-opacity="0.988" d="M 141.50,219.29 L 148.00,219.71 L 131.50,220.21 L 129.00,219.79 L 141.50,219.29 Z"/>
<path fill="#e2e2e5" fill-opacity="0.992" d="M 129.00,219.79 L 131.50,220.21 Q 122.79,220.87 116.00,223.00 Q 81.13,233.93 55.69,260.94 Q 38.35,279.34 27.03,300.55 Q 8.44,335.37 2.71,374.50 Q 1.95,374.17 2.21,373.25 Q 9.15,325.10 35.76,284.51 Q 44.14,271.74 54.63,260.76 Q 62.11,252.94 69.19,247.08 Q 87.37,232.01 111.06,223.81 Q 121.06,220.35 129.00,219.79 Z"/>
<path fill="#d1d3d4" fill-opacity="0.992" d="M 223.46,290.75 Q 228.36,317.64 242.04,341.25 Q 242.00,341.68 241.71,342.00 Q 227.41,318.74 222.96,291.75 Q 223.04,291.16 223.46,290.75 Z"/>
<path fill="#e2e2e5" fill-opacity="0.992" d="M 407.50,292.96 Q 423.23,337.76 448.17,378.14 Q 451.24,383.12 453.87,388.18 A 0.59,0.59 -29.9 0 1 453.66,388.95 Q 450.29,391.01 447.35,392.39 Q 420.33,405.09 401.45,428.22 Q 394.90,436.24 391.39,445.40 A 1.33,1.33 21.2 0 1 389.66,446.16 Q 376.44,440.97 363.65,435.91 Q 351.11,430.95 338.83,425.43 Q 325.05,419.23 320.68,417.03 Q 301.52,407.39 285.63,393.00 Q 279.28,387.24 271.20,379.16 Q 254.37,362.32 241.71,342.00 Q 242.00,341.68 242.04,341.25 Q 251.76,356.30 259.19,364.81 Q 272.93,380.56 288.57,394.43 Q 301.38,405.77 316.53,413.70 Q 327.83,419.62 339.53,424.68 Q 364.18,435.35 389.72,445.18 A 0.76,0.76 22.3 0 0 390.69,444.78 Q 393.03,439.41 396.18,434.33 Q 399.02,429.73 403.17,424.89 Q 423.60,401.02 452.70,388.79 A 0.70,0.70 -28.3 0 0 453.01,387.76 Q 424.00,343.42 406.96,293.25 Q 407.08,292.93 407.50,292.96 Z"/>
<path fill="#c1c7bf" fill-opacity="0.988" d="M 2.21,373.25 Q 1.95,374.17 2.71,374.50 Q 1.88,380.75 0.75,400.00 Q 0.36,406.73 0.43,411.52 Q 0.46,413.60 1.00,423.00 Q 2.33,446.16 9.00,468.46 L 8.29,468.50 Q 3.76,454.29 1.76,439.50 Q 0.88,432.97 0.00,426.44 Q 0.00,407.69 0.00,388.94 Q 1.10,381.09 2.21,373.25 Z"/>
<path fill="#e2e2e5" fill-opacity="0.992" d="M 465.84,517.91 Q 455.81,508.03 455.10,493.80 Q 454.40,479.80 461.80,469.41 Q 467.70,461.12 477.26,457.17 Q 491.99,451.08 508.31,458.69 Q 519.74,464.02 524.40,475.29 Q 528.86,486.07 527.19,496.89 Q 525.60,507.19 519.34,515.04 Q 509.92,526.86 492.75,527.50 Q 487.86,527.68 481.02,526.16 Q 472.22,524.21 465.84,517.91 ZM 515.56,517.81 Q 521.82,511.88 524.81,502.81 Q 527.92,493.38 526.30,484.49 Q 525.11,477.97 522.03,472.30 Q 518.96,466.63 513.70,462.81 Q 505.94,457.17 496.25,455.75 Q 482.09,453.67 471.58,460.99 Q 463.30,466.75 459.03,476.24 Q 453.97,487.48 457.15,500.71 Q 459.99,512.51 468.56,519.19 Q 478.80,527.16 493.06,526.60 Q 506.86,526.05 515.56,517.81 Z"/>
<path fill="#e2e2e5" fill-opacity="0.992" d="M 8.29,468.50 L 9.00,468.46 Q 28.21,529.75 81.56,563.19 Q 122.06,588.57 171.50,590.75 Q 173.04,590.82 177.25,591.29 L 174.50,591.71 Q 156.57,590.95 141.00,587.75 Q 106.61,580.68 77.26,561.49 Q 52.39,545.23 34.25,520.50 Q 16.52,496.32 8.29,468.50 Z"/>
<path fill="#e2e2e5" fill-opacity="0.992" d="M 231.29,787.25 Q 231.32,786.83 231.00,786.71 Q 243.53,766.51 267.00,763.75 Q 271.33,763.24 274.52,762.69 Q 281.37,761.51 281.51,761.49 Q 305.42,757.76 323.94,748.94 Q 350.89,736.09 372.41,715.41 Q 382.11,706.08 390.63,695.67 Q 411.30,670.42 424.06,640.38 Q 433.79,617.49 442.91,594.05 A 1.88,1.88 25.2 0 0 442.07,591.72 Q 435.34,587.99 428.82,583.37 Q 422.50,578.89 416.81,573.40 Q 410.29,567.11 404.52,560.12 Q 398.98,553.42 394.66,545.94 Q 390.28,538.35 386.86,530.47 A 1.13,1.13 -28.1 0 0 385.21,529.97 Q 361.40,545.23 335.75,556.71 Q 335.71,556.05 335.00,556.21 Q 361.13,544.31 385.93,528.42 A 0.63,0.63 -27.9 0 1 386.85,528.70 Q 399.88,560.11 427.06,581.19 Q 429.76,583.28 444.01,592.05 A 0.60,0.59 26.3 0 1 444.26,592.77 Q 432.30,624.08 423.81,643.31 Q 405.12,685.70 371.52,717.52 Q 358.12,730.21 342.53,740.09 Q 321.39,753.49 296.98,759.18 Q 276.10,764.05 271.00,764.25 Q 259.18,764.71 250.31,769.56 Q 239.33,775.57 231.29,787.25 Z"/>
<path fill="#e2e2e5" fill-opacity="0.992" d="M 690.00,587.21 Q 689.73,587.73 689.25,587.79 Q 674.75,575.71 658.00,566.99 Q 651.39,563.56 644.62,560.45 Q 639.25,558.00 630.88,554.74 Q 612.56,547.63 594.23,540.56 Q 593.00,540.09 592.36,539.62 A 1.41,1.40 -56.7 0 0 590.32,540.05 Q 583.35,551.95 574.46,562.48 Q 560.54,578.97 541.38,588.94 Q 534.93,592.30 528.69,595.74 A 1.24,1.23 -30.7 0 0 528.24,597.49 Q 541.28,617.91 552.18,639.54 Q 574.29,683.41 585.50,731.25 Q 589.73,749.30 591.46,767.75 Q 590.73,769.13 590.96,770.75 Q 589.94,757.90 587.46,745.26 Q 574.53,679.30 541.19,621.01 Q 534.26,608.90 526.70,596.33 A 0.67,0.67 -28.3 0 1 526.99,595.37 Q 530.92,593.47 534.45,591.57 Q 534.70,591.43 541.74,587.69 Q 556.25,579.96 567.85,568.49 Q 573.75,562.65 579.84,554.30 Q 585.31,546.79 590.09,538.77 A 0.97,0.97 25.9 0 1 591.28,538.36 Q 614.00,547.25 636.99,556.28 Q 665.91,567.63 690.00,587.21 Z"/>
<path fill="#d1d3d4" fill-opacity="0.992" d="M 335.00,556.21 Q 335.71,556.05 335.75,556.71 Q 312.09,567.73 282.50,577.25 Q 257.30,585.36 235.00,588.79 L 233.50,588.46 Q 246.12,586.25 255.25,584.00 Q 295.82,574.01 335.00,556.21 Z"/>
<path fill="#45544b" fill-opacity="0.980" d="M 980.21,568.75 L 980.04,592.50 L 979.54,588.25 L 979.54,573.25 L 980.21,568.75 Z"/>
<path fill="#d1d3d4" fill-opacity="0.992" d="M 690.00,587.21 Q 704.50,599.31 717.27,613.23 Q 729.37,626.43 738.72,641.60 Q 744.13,650.37 747.98,659.32 Q 756.80,679.82 759.19,701.06 Q 760.83,715.70 763.04,725.00 Q 762.79,725.39 762.29,725.25 Q 759.67,714.51 758.75,705.25 Q 754.28,660.32 725.75,624.75 Q 715.19,611.59 705.44,602.06 Q 703.06,599.74 689.25,587.79 Q 689.73,587.73 690.00,587.21 Z"/>
<path fill="#d1d3d4" fill-opacity="0.992" d="M 979.54,588.25 L 980.04,592.50 Q 979.27,623.51 968.29,652.50 Q 968.25,652.07 967.96,651.75 Q 978.76,620.92 979.54,588.25 Z"/>
<path fill="#c1c7bf" fill-opacity="0.988" d="M 233.50,588.46 L 235.00,588.79 Q 204.93,593.74 174.50,591.71 L 177.25,591.29 Q 205.50,592.36 233.50,588.46 Z"/>
<path fill="#e2e2e5" fill-opacity="0.992" d="M 967.96,651.75 Q 968.25,652.07 968.29,652.50 Q 962.93,669.37 953.06,687.06 Q 941.76,707.32 926.49,723.10 Q 919.11,730.72 911.83,736.70 Q 894.93,750.56 873.00,759.25 Q 861.94,763.63 852.77,764.48 Q 833.14,766.31 813.50,764.55 Q 807.82,764.03 802.46,762.10 Q 785.83,756.08 774.06,745.44 Q 765.47,737.67 762.29,725.25 Q 762.79,725.39 763.04,725.00 Q 767.13,739.25 778.28,747.99 Q 782.50,751.30 789.83,755.27 Q 795.69,758.44 802.25,761.00 Q 805.70,762.35 809.02,763.11 Q 811.76,763.74 816.04,763.93 Q 830.33,764.59 847.00,764.00 Q 852.25,763.81 856.84,763.11 Q 861.09,762.46 866.40,760.71 Q 884.21,754.84 898.94,745.19 Q 922.36,729.83 939.75,706.25 Q 957.41,682.31 967.96,651.75 Z"/>
<path fill="#d1d3d4" fill-opacity="0.992" d="M 591.46,767.75 Q 591.74,769.12 591.77,770.50 Q 592.13,787.25 591.82,804.00 Q 591.29,831.87 583.25,858.54 Q 582.67,858.58 582.71,858.00 Q 586.92,842.53 588.50,832.25 Q 592.98,803.12 590.96,770.75 Q 590.73,769.13 591.46,767.75 Z"/>
<path fill="#c1c7bf" fill-opacity="0.988" d="M 231.00,786.71 Q 231.32,786.83 231.29,787.25 Q 220.90,802.83 219.25,823.75 Q 217.42,846.93 222.04,866.00 Q 221.79,866.39 221.29,866.25 Q 215.99,844.30 218.75,819.75 Q 220.87,800.93 231.00,786.71 Z"/>
<path fill="#e2e2e5" fill-opacity="0.992" d="M 582.71,858.00 Q 582.67,858.58 583.25,858.54 Q 574.70,888.80 556.23,914.21 Q 542.25,933.44 523.24,947.72 Q 490.97,971.97 451.25,979.71 Q 451.21,979.05 450.50,979.21 Q 473.71,974.35 495.05,964.04 Q 521.10,951.47 541.19,930.69 Q 570.24,900.63 582.71,858.00 Z"/>
<path fill="#e2e2e5" fill-opacity="0.992" d="M 222.04,866.00 Q 230.12,892.80 247.74,914.52 Q 262.36,932.55 281.57,945.62 Q 318.17,970.52 362.19,979.06 Q 378.86,982.30 394.75,982.54 Q 394.78,982.78 394.69,983.00 Q 389.81,983.00 384.94,983.00 Q 336.74,978.78 295.69,955.81 Q 279.68,946.86 264.03,932.95 Q 249.16,919.74 237.69,902.06 Q 226.57,884.93 221.29,866.25 Q 221.79,866.39 222.04,866.00 Z"/>
<path fill="#c1c7bf" fill-opacity="0.988" d="M 450.50,979.21 Q 451.21,979.05 451.25,979.71 Q 439.77,981.73 428.19,983.00 Q 419.56,983.00 410.94,983.00 Q 410.95,982.49 411.75,982.50 Q 430.24,982.65 450.50,979.21 Z"/>
<path fill="#45544b" fill-opacity="0.980" d="M 400.19,983.00 Q 397.44,983.00 394.69,983.00 Q 394.78,982.78 394.75,982.54 Q 397.13,982.41 399.50,982.30 Q 400.64,982.24 400.19,983.00 Z"/>
</svg>
