<?xml version="1.0" encoding="UTF-8" standalone="no"?>
<!DOCTYPE svg PUBLIC "-//W3C//DTD SVG 1.1//EN" "http://www.w3.org/Graphics/SVG/1.1/DTD/svg11.dtd">
<svg xmlns="http://www.w3.org/2000/svg" version="1.1" viewBox="0 0 200 200">
<path fill="#000000" d="M 71.78,113.34 Q 58.52,125.16 42.53,133.00 Q 37.01,135.70 31.05,137.19 Q 23.29,139.13 17.06,135.99 Q 11.81,133.34 7.84,126.60 Q 2.96,118.32 2.44,108.25 Q 1.06,81.41 17.49,60.47 Q 24.62,51.38 36.16,44.85 A 2.40,2.40 -47.7 0 1 38.31,44.75 Q 42.05,46.41 43.71,50.04 Q 44.23,51.17 45.11,57.10 Q 45.96,62.85 48.60,67.93 Q 51.05,72.67 55.67,76.53 Q 63.04,82.71 72.64,85.96 A 0.73,0.73 -64.5 0 0 73.51,85.65 Q 77.43,79.18 84.40,74.96 A 0.69,0.69 53.3 0 0 84.55,73.91 Q 71.07,59.21 62.63,40.91 Q 59.30,33.69 58.75,25.75 Q 58.35,19.94 61.73,15.19 Q 64.38,11.46 69.74,8.43 Q 78.49,3.49 89.25,3.00 Q 101.91,2.43 113.09,5.84 Q 138.18,13.49 151.57,36.13 Q 152.50,37.69 151.64,39.28 Q 150.20,41.94 147.77,43.51 Q 146.07,44.61 142.49,45.20 Q 134.76,46.50 133.25,47.00 Q 127.24,49.00 123.81,52.06 Q 114.63,60.27 110.71,73.21 A 0.59,0.59 22.7 0 0 111.00,73.91 Q 118.80,77.89 123.97,85.99 A 0.67,0.67 -37.0 0 0 124.98,86.13 Q 138.25,74.19 153.82,66.08 Q 157.76,64.02 161.96,62.64 Q 167.20,60.92 170.48,60.50 Q 176.66,59.71 181.81,62.46 Q 187.20,65.33 190.93,72.21 Q 194.17,78.17 195.25,85.25 Q 196.44,93.05 195.73,100.25 Q 192.24,135.35 162.26,153.55 A 1.65,1.64 40.6 0 1 160.78,153.66 Q 153.93,150.86 153.31,143.33 Q 153.13,141.22 153.13,141.18 Q 151.09,125.28 137.08,117.36 Q 132.08,114.53 126.07,112.34 A 1.15,1.15 22.9 0 0 124.64,112.92 Q 120.99,120.71 112.92,125.34 A 0.83,0.82 54.0 0 0 112.72,126.61 Q 126.20,141.29 134.69,159.56 Q 136.87,164.25 137.84,169.57 Q 138.94,175.54 137.76,179.90 Q 135.73,187.44 128.19,191.69 Q 118.03,197.41 106.75,197.50 Q 91.94,197.62 80.40,193.41 Q 58.31,185.37 45.69,164.31 A 2.96,2.95 -49.7 0 1 45.48,161.68 Q 47.68,156.16 54.25,155.22 Q 57.60,154.74 60.91,154.06 Q 72.19,151.74 78.83,142.36 Q 83.80,135.34 86.65,127.52 A 0.93,0.92 23.3 0 0 86.19,126.37 Q 77.29,122.00 72.93,113.55 A 0.74,0.74 55.3 0 0 71.78,113.34 ZM 120.81,100.20 A 22.17 22.17 0.0 0 0 98.64,78.03 A 22.17 22.17 0.0 0 0 76.47,100.20 A 22.17 22.17 0.0 0 0 98.64,122.37 A 22.17 22.17 0.0 0 0 120.81,100.20 Z"/>
<path fill="#000000" d="M 114.07,100.22 A 15.45 15.45 0.0 0 1 98.62,115.67 A 15.45 15.45 0.0 0 1 83.17,100.22 A 15.45 15.45 0.0 0 1 98.62,84.77 A 15.45 15.45 0.0 0 1 114.07,100.22 ZM 108.74,99.89 A 10.12 10.12 0.0 0 0 98.62,89.77 A 10.12 10.12 0.0 0 0 88.50,99.89 A 10.12 10.12 0.0 0 0 98.62,110.01 A 10.12 10.12 0.0 0 0 108.74,99.89 Z"/>
</svg>
